<svg width="20" height="20" viewBox="0 0 20 20" fill="none" xmlns="http://www.w3.org/2000/svg">
<g clip-path="url(#clip0_0:168)">
<path d="M19.2734 0.960872L15.2109 0.0233716C14.7694 -0.0781909 14.3163 0.152278 14.1366 0.56634L12.2616 4.94134C12.0976 5.32415 12.2069 5.77337 12.5312 6.03509L14.8984 7.97259C13.4921 10.9687 11.0351 13.4609 7.97648 14.8945L6.03898 12.5273C5.77336 12.2031 5.32804 12.0937 4.94523 12.2577L0.570231 14.1327C0.152262 14.3163 -0.0782064 14.7695 0.0233561 15.2109L0.960856 19.2734C1.05851 19.6952 1.43351 19.9999 1.87492 19.9999C11.8788 19.9999 19.9999 11.8945 19.9999 1.87493C19.9999 1.43743 19.6991 1.05853 19.2734 0.960872Z" fill="#C72728"/>
</g>
<defs>
<clipPath id="clip0_0:168">
<rect width="20" height="20" fill="white"/>
</clipPath>
</defs>
</svg>
